<?xml version="1.0" encoding="UTF-8"?>
<svg width="202px" height="30px" viewBox="0 0 202 30" version="1.1" xmlns="http://www.w3.org/2000/svg" xmlns:xlink="http://www.w3.org/1999/xlink">
    <!-- Generator: Sketch 53.2 (72643) - https://sketchapp.com -->
    <title>servicenow-header-full-logo</title>
    <desc>Created with Sketch.</desc>
    <g id="Page-1" stroke="none" stroke-width="1" fill="none" fill-rule="evenodd">
        <g id="servicenow-header-full-logo">
            <path d="M49.5197059,9.14941176 C47.3115686,9.14941176 45.4301961,9.93166667 43.9151961,11.1595098 L43.9151961,9.34745098 L38.8057843,9.34745098 L38.8057843,29.280098 L44.1231373,29.280098 L44.1231373,16.5461765 C44.8558824,15.5163725 46.6976471,14.0805882 48.9453922,14.0805882 C49.747451,14.0805882 50.4801961,14.14 51.0743137,14.397451 L51.0743137,9.28803922 C50.5693137,9.19892157 50.0544118,9.14941176 49.5197059,9.14941176" id="Path" fill="#293F41"></path>
            <path d="M3.17852941,23.2002941 C4.52519608,24.4281373 6.6145098,25.1707843 8.61470588,25.1707843 C10.0504902,25.1707843 11.1496078,24.4677451 11.1496078,23.487451 C11.1496078,20.4871569 1.54470588,21.5565686 1.54470588,15.15 C1.54470588,11.3278431 5.22823529,8.94147059 9.14941176,8.94147059 C11.7239216,8.94147059 14.5459804,9.93166667 15.8530392,10.9515686 L13.3577451,14.8133333 C12.3378431,14.0706863 10.9911765,13.4567647 9.55539216,13.4567647 C8.08,13.4567647 6.85215686,14.0310784 6.85215686,15.0608824 C6.85215686,17.6452941 16.4570588,16.6253922 16.4570588,23.5270588 C16.4570588,27.3492157 12.7339216,29.6860784 8.56519608,29.6860784 C5.82235294,29.6860784 2.92107843,28.7453922 0.594117647,27.012549 L3.17852941,23.2002941 Z" id="Path" fill="#293F41"></path>
            <path d="M36.5382353,19.1404902 C36.5382353,13.5953922 32.6566667,8.95137255 27.1808824,8.95137255 C21.2892157,8.95137255 17.5363725,13.8033333 17.5363725,19.3484314 C17.5363725,25.5965686 21.9922549,29.7058824 27.9235294,29.7058824 C30.9931373,29.7058824 34.1419608,28.4285294 36.0629412,26.1312745 L33.0329412,23.0913725 C32.0922549,24.1211765 30.290098,25.3886275 28.0423529,25.3886275 C25.2202941,25.3886275 22.972549,23.4577451 22.6853922,20.6653922 L36.4194118,20.6653922 C36.4986275,20.209902 36.5382353,19.6751961 36.5382353,19.1404902 L36.5382353,19.1404902 Z M22.9230392,16.7541176 C23.1705882,14.9420588 24.9628431,13.2587255 27.1709804,13.2587255 C29.3395098,13.2587255 30.9337255,14.9816667 31.0921569,16.7541176 L22.9230392,16.7541176 Z" id="Shape" fill="#293F41"></path>
            <polygon id="Path" fill="#293F41" points="63.7488235 21.5169608 69.185 9.35735294 74.7003922 9.35735294 65.5905882 29.29 61.9070588 29.29 52.7873529 9.35735294 58.3126471 9.35735294"></polygon>
            <path d="M79.1661765,0 C81.0871569,0 82.6417647,1.47539216 82.6417647,3.40627451 C82.6417647,5.33715686 81.0871569,6.81254902 79.1661765,6.81254902 C77.2451961,6.81254902 75.6905882,5.33715686 75.6905882,3.40627451 C75.6905882,1.47539216 77.2451961,0 79.1661765,0" id="Path" fill="#293F41"></path>
            <rect id="Rectangle" fill="#293F41" x="76.512451" y="9.35735294" width="5.31735294" height="19.9326471"></rect>
            <path d="M103.802255,25.2202941 C101.475294,28.3394118 98.5245098,29.6959804 94.8112745,29.6959804 C88.6819608,29.6959804 84.1765686,25.0915686 84.1765686,19.3385294 C84.1765686,13.5458824 88.8007843,8.94147059 94.8508824,8.94147059 C98.2868627,8.94147059 101.356471,10.5455882 103.188333,12.9319608 L99.4255882,16.2590196 C98.3660784,14.8628431 96.7718627,13.8726471 94.8508824,13.8726471 C91.7812745,13.8726471 89.4939216,16.2986275 89.4939216,19.3385294 C89.4939216,22.4576471 91.7416667,24.7648039 94.9697059,24.7648039 C97.1382353,24.7648039 98.8512745,23.4478431 99.7127451,22.1308824 L103.802255,25.2202941 Z" id="Path" fill="#293F41"></path>
            <path d="M123.101176,26.1213725 C121.180196,28.4186275 118.031373,29.6959804 114.961765,29.6959804 C109.03049,29.6959804 104.574608,25.5866667 104.574608,19.3385294 C104.574608,13.7934314 108.337353,8.94147059 114.219118,8.94147059 C119.694902,8.94147059 123.576471,13.5854902 123.576471,19.1305882 C123.576471,19.6652941 123.536863,20.2 123.457647,20.6554902 L109.723627,20.6554902 C110.010784,23.4478431 112.258529,25.3787255 115.080588,25.3787255 C117.328333,25.3787255 119.13049,24.1013725 120.071176,23.0814706 L123.101176,26.1213725 Z M118.160098,16.7541176 C117.991765,14.9915686 116.397549,13.2587255 114.238922,13.2587255 C112.030784,13.2587255 110.228627,14.9420588 109.99098,16.7541176 L118.160098,16.7541176 Z" id="Shape" fill="#293F41"></path>
            <path d="M125.705392,29.29 L125.705392,9.35735294 L130.814804,9.35735294 L130.814804,10.9614706 C132.329804,9.73362745 134.211176,8.95137255 136.419314,8.95137255 C139.162157,8.95137255 141.657451,10.1792157 143.291275,12.1596078 C144.598333,13.7241176 145.331078,15.7342157 145.331078,19.1404902 L145.331078,29.29 L140.013725,29.29 L140.013725,18.7246078 C140.013725,16.7541176 139.568137,15.7243137 138.82549,14.9816667 C138.132353,14.2786275 137.062941,13.8726471 135.845,13.8726471 C133.597255,13.8726471 131.75549,15.3084314 131.022745,16.3382353 L131.022745,29.280098 L125.705392,29.280098 L125.705392,29.29 Z" id="Path" fill="#293F41"></path>
            <path d="M159.015588,8.95137255 C152.668431,8.91176471 147.41049,14.1201961 147.36098,20.4970588 C147.331275,23.8736275 148.737353,26.9234314 151.004902,29.0721569 C151.826765,29.8544118 153.104118,29.9237255 153.995294,29.2305882 C155.312255,28.2007843 157.00549,27.5868627 158.956176,27.5868627 C160.906863,27.5868627 162.600098,28.2007843 163.917059,29.2305882 C164.818137,29.9336275 166.09549,29.8445098 166.927255,29.0523529 C169.155196,26.9333333 170.551373,23.9231373 170.551373,20.5960784 C170.541471,14.1895098 165.382549,8.98107843 159.015588,8.95137255 M158.946275,26.4184314 C155.510294,26.4184314 153.153627,23.8241176 153.153627,20.6158824 C153.153627,17.4076471 155.510294,14.7737255 158.946275,14.7737255 C162.392157,14.7737255 164.738922,17.4076471 164.738922,20.6158824 C164.738922,23.8241176 162.392157,26.4184314 158.946275,26.4184314" id="Shape" fill="#82B6A1"></path>
            <polygon id="Path" fill="#293F41" points="181.057353 29.29 177.096569 29.29 169.204706 9.35735294 174.512157 9.35735294 178.839314 20.7446078 183.077353 9.35735294 187.513431 9.35735294 191.721765 20.7446078 196.088529 9.35735294 201.39598 9.35735294 193.504118 29.29 189.543333 29.29 185.295392 17.9423529"></polygon>
            <polygon id="Path" fill="#293F41" fill-rule="nonzero" points="198.484804 26.755098 198.484804 27.1907843 197.811471 27.1907843 197.811471 29.29 197.326275 29.29 197.326275 27.1907843 196.652941 27.1907843 196.652941 26.755098"></polygon>
            <polygon id="Path" fill="#293F41" fill-rule="nonzero" points="200.128529 28.270098 201.049412 26.755098 201.39598 26.755098 201.39598 29.29 200.910784 29.29 200.910784 27.8740196 200.296863 28.8741176 199.960196 28.8741176 199.356176 27.8740196 199.356176 29.29 198.87098 29.29 198.87098 26.755098 199.207647 26.755098"></polygon>
        </g>
    </g>
</svg>